# Blender v2.80 (sub 75) OBJ File: 'rocket.blend'
# www.blender.org
mtllib RocketBody_001.mtl
o Body_001_Cylinder.009
v 0.665687 -4.571058 -1.647634
v 0.665687 4.571060 -1.647634
v 1.635765 -4.571058 -0.694341
v 1.635765 4.571060 -0.694341
v 1.647634 -4.571058 0.665688
v 1.647634 4.571060 0.665688
v 0.694341 -4.571058 1.635765
v 0.694341 4.571060 1.635765
v -0.665688 -4.571058 1.647634
v -0.665688 4.571060 1.647634
v -1.635766 -4.571058 0.694341
v -1.635766 4.571060 0.694341
v -1.647634 -4.571058 -0.665687
v -1.647634 4.571060 -0.665687
v -0.694342 -4.571058 -1.635765
v -0.694342 4.571060 -1.635765
v 0.578294 -3.970958 -1.431329
v 0.578294 3.970961 -1.431329
v 1.421018 3.970961 -0.603186
v 1.421018 -3.970958 -0.603186
v 1.431329 -3.970958 0.578294
v 1.431329 3.970961 0.578294
v 0.603186 3.970961 1.421018
v 0.603186 -3.970958 1.421018
v -0.578295 -3.970958 1.431329
v -0.578295 3.970961 1.431329
v -1.421018 3.970961 0.603186
v -1.421018 -3.970958 0.603186
v -1.431329 -3.970958 -0.578294
v -1.431329 3.970961 -0.578294
v -0.603187 3.970961 -1.421018
v -0.603187 -3.970958 -1.421018
vt 0.080294 0.419706
vt 0.250000 0.490000
vt 0.250000 0.490000
vt 0.080294 0.419706
vt 0.375000 0.500000
vt 0.375000 1.000000
vt 0.375000 1.000000
vt 0.375000 0.500000
vt 0.750000 0.490000
vt 0.580294 0.419706
vt 0.580294 0.419706
vt 0.750000 0.490000
vt 0.125000 0.500000
vt 0.125000 1.000000
vt 0.125000 1.000000
vt 0.125000 0.500000
vt 0.875000 0.500000
vt 0.875000 1.000000
vt 0.750000 1.000000
vt 0.750000 0.500000
vt 0.625000 0.500000
vt 0.625000 1.000000
vt 0.500000 1.000000
vt 0.500000 0.500000
vt 0.250000 1.000000
vt 0.250000 0.500000
vt 0.000000 1.000000
vt 0.000000 0.500000
vt 0.510000 0.250000
vt 0.580294 0.080294
vt 0.580294 0.080294
vt 0.510000 0.250000
vt 0.625000 0.500000
vt 0.625000 1.000000
vt 1.000000 1.000000
vt 1.000000 0.500000
vt 1.000000 0.500000
vt 1.000000 1.000000
vt 0.080294 0.080294
vt 0.010000 0.250000
vt 0.010000 0.250000
vt 0.080294 0.080294
vt 0.750000 0.010000
vt 0.919706 0.080294
vt 0.919706 0.080294
vt 0.750000 0.010000
vt 0.875000 0.500000
vt 0.875000 1.000000
vt 0.250000 1.000000
vt 0.250000 0.500000
vt 0.419706 0.080294
vt 0.250000 0.010000
vt 0.250000 0.010000
vt 0.419706 0.080294
vt 0.990000 0.250000
vt 0.919706 0.419706
vt 0.919706 0.419706
vt 0.990000 0.250000
vt 0.500000 1.000000
vt 0.500000 0.500000
vt 0.419706 0.419706
vt 0.490000 0.250000
vt 0.490000 0.250000
vt 0.419706 0.419706
vt 0.750000 1.000000
vt 0.750000 0.500000
vn -0.0082 -0.3380 -0.9411
vn -0.3907 0.0000 -0.9205
vn -0.0082 0.3380 -0.9411
vn 0.9205 0.0000 -0.3907
vn 1.0000 0.0000 -0.0087
vn 0.0087 0.0000 1.0000
vn -1.0000 0.0000 0.0087
vn -0.0087 0.0000 -1.0000
vn -0.9411 0.3380 0.0082
vn -0.9205 0.0000 0.3907
vn -0.9272 0.0000 -0.3746
vn -0.9411 -0.3380 0.0082
vn 0.0082 0.3380 0.9411
vn 0.3907 0.0000 0.9205
vn -0.3746 0.0000 0.9272
vn 0.0082 -0.3380 0.9411
vn 0.9411 0.3380 -0.0082
vn 0.9272 0.0000 0.3746
vn 0.9411 -0.3380 -0.0082
vn 0.3746 0.0000 -0.9272
vn 0.7009 0.0000 -0.7133
vn 0.7133 0.0000 0.7009
vn -0.7009 0.0000 0.7133
vn 0.0000 1.0000 0.0000
vn -0.7133 0.0000 -0.7009
vn 0.0000 -1.0000 0.0000
usemtl Material.011
s off
f 16/1/1 2/2/1 18/3/1 31/4/1
f 11/5/2 12/6/2 27/7/2 28/8/2
f 1/9/3 15/10/3 32/11/3 17/12/3
f 15/13/4 16/14/4 31/15/4 32/16/4
f 20/17/5 19/18/5 22/19/5 21/20/5
f 24/21/6 23/22/6 26/23/6 25/24/6
f 28/8/7 27/7/7 30/25/7 29/26/7
f 32/16/8 31/15/8 18/27/8 17/28/8
f 13/29/9 11/30/9 28/31/9 29/32/9
f 7/33/10 8/34/10 23/22/10 24/21/10
f 2/35/11 1/36/11 17/37/11 18/38/11
f 12/39/12 14/40/12 30/41/12 27/42/12
f 9/43/13 7/44/13 24/45/13 25/46/13
f 3/47/14 4/48/14 19/18/14 20/17/14
f 14/49/15 13/50/15 29/26/15 30/25/15
f 8/51/16 10/52/16 26/53/16 23/54/16
f 5/55/17 3/56/17 20/57/17 21/58/17
f 10/59/18 9/60/18 25/24/18 26/23/18
f 4/61/19 6/62/19 22/63/19 19/64/19
f 6/65/20 5/66/20 21/20/20 22/19/20
usemtl Material.012
f 1/36/21 2/35/21 4/48/21 3/47/21
f 5/66/22 6/65/22 8/34/22 7/33/22
f 9/60/23 10/59/23 12/6/23 11/5/23
f 4/61/24 2/2/24 16/1/24 14/40/24 12/39/24 10/52/24 8/51/24 6/62/24
f 13/50/25 14/49/25 16/14/25 15/13/25
f 1/9/26 3/56/26 5/55/26 7/44/26 9/43/26 11/30/26 13/29/26 15/10/26
