# Blender v2.80 (sub 75) OBJ File: 'rocket.blend'
# www.blender.org
mtllib RocketNose_001.mtl
o RocketHead_001_Cone
v 0.000000 -1.049158 -1.806975
v 0.691500 -1.049158 -1.669427
v 1.277724 -1.049158 -1.277724
v 1.669427 -1.049158 -0.691499
v 1.806975 -1.049158 0.000000
v 1.669427 -1.049158 0.691500
v 1.277724 -1.049158 1.277724
v 0.691500 -1.049158 1.669427
v 0.000000 -1.049158 1.806975
v -0.691499 -1.049158 1.669428
v -1.277724 -1.049158 1.277725
v 0.000000 2.564792 -0.000000
v -1.669427 -1.049158 0.691500
v -1.806975 -1.049158 -0.000000
v -1.669427 -1.049158 -0.691500
v -1.277724 -1.049158 -1.277725
v -0.691499 -1.049158 -1.669428
v 0.000000 1.805784 -0.276377
v 0.105765 1.805784 -0.255339
v 0.195428 1.805784 -0.195428
v 0.255339 1.805784 -0.105765
v 0.276377 1.805784 -0.000000
v 0.255339 1.805784 0.105765
v 0.195428 1.805784 0.195428
v 0.105765 1.805784 0.255339
v 0.000000 1.805784 0.276377
v -0.105765 1.805784 0.255339
v -0.195428 1.805784 0.195428
v 0.000000 5.490805 -0.000000
v -0.255339 1.805784 0.105765
v -0.276377 1.805784 -0.000000
v -0.255339 1.805784 -0.105765
v -0.195428 1.805784 -0.195428
v -0.105765 1.805784 -0.255339
v 0.000000 5.347950 -0.368502
v 0.000000 5.087379 -0.260570
v 0.000000 5.007497 -0.141020
v 0.099716 5.688401 -0.099716
v 0.184251 5.608520 -0.184251
v 0.240736 5.488969 -0.240736
v 0.260570 5.347950 -0.260570
v 0.240736 5.206929 -0.240736
v 0.184251 5.087379 -0.184251
v 0.099716 5.007497 -0.099716
v 0.141020 5.688401 -0.000000
v 0.260570 5.608520 -0.000000
v 0.340452 5.488969 -0.000000
v 0.368502 5.347950 -0.000000
v 0.340452 5.206929 -0.000000
v 0.260570 5.087379 -0.000000
v 0.141020 5.007497 -0.000000
v 0.099716 5.688401 0.099716
v 0.184251 5.608520 0.184251
v 0.240736 5.488969 0.240736
v 0.260570 5.347950 0.260570
v 0.240736 5.206929 0.240736
v 0.184251 5.087379 0.184251
v 0.099716 5.007497 0.099716
v 0.000000 5.688401 0.141020
v 0.000000 5.608520 0.260570
v 0.000000 5.488969 0.340452
v 0.000000 5.347950 0.368502
v 0.000000 5.206929 0.340452
v 0.000000 5.087379 0.260570
v 0.000000 5.007497 0.141020
v -0.099716 5.688401 0.099716
v -0.184251 5.608520 0.184251
v -0.240736 5.488969 0.240736
v -0.260570 5.347950 0.260570
v -0.240736 5.206929 0.240736
v -0.184251 5.087379 0.184251
v -0.099716 5.007497 0.099716
v -0.141020 5.688401 -0.000000
v -0.260570 5.608520 -0.000000
v -0.340452 5.488969 -0.000000
v -0.368502 5.347950 -0.000000
v -0.340452 5.206929 -0.000000
v -0.260570 5.087379 -0.000000
v -0.141020 5.007497 -0.000000
v -0.099716 5.688401 -0.099716
v -0.184251 5.608520 -0.184251
v -0.240736 5.488969 -0.240736
v -0.260570 5.347950 -0.260570
v -0.240736 5.206929 -0.240736
v -0.184251 5.087379 -0.184251
v -0.099716 5.007497 -0.099716
v 0.000000 4.979447 -0.000000
v 0.000000 5.716452 -0.000000
v 0.000000 5.688401 -0.141020
v 0.000000 5.608520 -0.260570
v 0.000000 5.488969 -0.340452
v 0.000000 5.206929 -0.340452
vt 0.250000 0.490000
vt 0.250000 0.250000
vt 0.341844 0.471731
vt 0.419706 0.419706
vt 0.471731 0.341844
vt 0.490000 0.250000
vt 0.471731 0.158156
vt 0.419706 0.080294
vt 0.341844 0.028269
vt 0.250000 0.010000
vt 0.158156 0.028269
vt 0.080294 0.080294
vt 0.028269 0.158156
vt 0.010000 0.250000
vt 0.028269 0.341844
vt 0.080294 0.419706
vt 0.158156 0.471731
vt 0.750000 0.490000
vt 0.841844 0.471731
vt 0.919706 0.419706
vt 0.971731 0.341844
vt 0.990000 0.250000
vt 0.971731 0.158156
vt 0.919706 0.080294
vt 0.841844 0.028269
vt 0.750000 0.010000
vt 0.658156 0.028269
vt 0.580294 0.080294
vt 0.528269 0.158156
vt 0.510000 0.250000
vt 0.528269 0.341844
vt 0.580294 0.419706
vt 0.658156 0.471731
vt 0.250000 0.490000
vt 0.250000 0.250000
vt 0.341844 0.471731
vt 0.419706 0.419706
vt 0.471731 0.341844
vt 0.490000 0.250000
vt 0.471731 0.158156
vt 0.419706 0.080294
vt 0.341844 0.028269
vt 0.250000 0.010000
vt 0.158156 0.028269
vt 0.080294 0.080294
vt 0.028269 0.158156
vt 0.010000 0.250000
vt 0.028269 0.341844
vt 0.080294 0.419706
vt 0.158156 0.471731
vt 0.750000 0.490000
vt 0.841844 0.471731
vt 0.919706 0.419706
vt 0.971731 0.341844
vt 0.990000 0.250000
vt 0.971731 0.158156
vt 0.919706 0.080294
vt 0.841844 0.028269
vt 0.750000 0.010000
vt 0.658156 0.028269
vt 0.580294 0.080294
vt 0.528269 0.158156
vt 0.510000 0.250000
vt 0.528269 0.341844
vt 0.580294 0.419706
vt 0.658156 0.471731
vt 0.687500 0.000000
vt 0.750000 0.125000
vt 0.625000 0.125000
vt 0.750000 0.250000
vt 0.750000 0.375000
vt 0.625000 0.375000
vt 0.625000 0.250000
vt 0.750000 0.500000
vt 0.750000 0.625000
vt 0.625000 0.625000
vt 0.625000 0.500000
vt 0.750000 0.750000
vt 0.750000 0.875000
vt 0.625000 0.875000
vt 0.625000 0.750000
vt 0.687500 1.000000
vt 0.500000 0.250000
vt 0.500000 0.125000
vt 0.500000 0.500000
vt 0.500000 0.375000
vt 0.500000 0.750000
vt 0.500000 0.625000
vt 0.562500 1.000000
vt 0.500000 0.875000
vt 0.562500 0.000000
vt 0.375000 0.500000
vt 0.375000 0.375000
vt 0.375000 0.750000
vt 0.375000 0.625000
vt 0.437500 1.000000
vt 0.375000 0.875000
vt 0.437500 0.000000
vt 0.375000 0.125000
vt 0.375000 0.250000
vt 0.312500 0.000000
vt 0.250000 0.125000
vt 0.250000 0.375000
vt 0.250000 0.250000
vt 0.250000 0.625000
vt 0.250000 0.500000
vt 0.250000 0.875000
vt 0.250000 0.750000
vt 0.312500 1.000000
vt 0.125000 0.625000
vt 0.125000 0.500000
vt 0.125000 0.875000
vt 0.125000 0.750000
vt 0.125000 0.250000
vt 0.125000 0.125000
vt 0.125000 0.375000
vt 0.187500 1.000000
vt 0.187500 0.000000
vt 0.000000 0.250000
vt 0.000000 0.125000
vt 0.000000 0.500000
vt 0.000000 0.375000
vt 0.000000 0.750000
vt 0.000000 0.625000
vt 0.062500 1.000000
vt 0.000000 0.875000
vt 0.062500 0.000000
vt 1.000000 0.625000
vt 1.000000 0.750000
vt 0.875000 0.750000
vt 0.875000 0.625000
vt 1.000000 0.875000
vt 0.937500 1.000000
vt 0.875000 0.875000
vt 0.937500 0.000000
vt 1.000000 0.125000
vt 0.875000 0.125000
vt 1.000000 0.250000
vt 1.000000 0.375000
vt 0.875000 0.375000
vt 0.875000 0.250000
vt 1.000000 0.500000
vt 0.875000 0.500000
vt 0.812500 0.000000
vt 0.812500 1.000000
vn 0.1752 0.4403 -0.8806
vn 0.4988 0.4403 -0.7465
vn 0.7465 0.4403 -0.4988
vn 0.8806 0.4403 -0.1752
vn 0.8806 0.4403 0.1752
vn 0.7465 0.4403 0.4988
vn 0.4988 0.4403 0.7465
vn 0.1752 0.4403 0.8806
vn -0.1752 0.4403 0.8806
vn -0.4988 0.4403 0.7465
vn -0.7465 0.4403 0.4988
vn -0.8806 0.4403 0.1752
vn -0.8806 0.4403 -0.1752
vn -0.7465 0.4403 -0.4988
vn -0.4988 0.4403 -0.7465
vn -0.1752 0.4403 -0.8806
vn 0.0000 -1.0000 -0.0000
vn 0.1946 0.0734 -0.9781
vn 0.5541 0.0734 -0.8292
vn 0.8292 0.0734 -0.5541
vn 0.9781 0.0734 -0.1946
vn 0.9781 0.0734 0.1946
vn 0.8292 0.0734 0.5541
vn 0.5541 0.0734 0.8292
vn 0.1946 0.0734 0.9781
vn -0.1946 0.0734 0.9781
vn -0.5541 0.0734 0.8292
vn -0.8292 0.0734 0.5541
vn -0.9781 0.0734 0.1946
vn -0.9781 0.0734 -0.1946
vn -0.8292 0.0734 -0.5541
vn -0.5541 0.0734 -0.8292
vn -0.1946 0.0734 -0.9781
vn 0.0805 -0.9776 -0.1945
vn 0.3256 -0.5253 -0.7862
vn 0.3764 0.1807 -0.9087
vn 0.2243 0.8103 -0.5414
vn 0.2243 -0.8103 -0.5414
vn 0.3764 -0.1807 -0.9087
vn 0.3256 0.5253 -0.7862
vn 0.0805 0.9776 -0.1945
vn 0.5414 -0.8103 -0.2243
vn 0.9087 -0.1807 -0.3764
vn 0.7862 0.5253 -0.3256
vn 0.1945 0.9776 -0.0805
vn 0.1945 -0.9776 -0.0805
vn 0.7862 -0.5253 -0.3256
vn 0.9087 0.1807 -0.3764
vn 0.5414 0.8103 -0.2243
vn 0.9087 -0.1807 0.3764
vn 0.7862 0.5253 0.3256
vn 0.1945 0.9776 0.0805
vn 0.1945 -0.9776 0.0805
vn 0.7862 -0.5253 0.3256
vn 0.9087 0.1807 0.3764
vn 0.5414 0.8103 0.2243
vn 0.5414 -0.8103 0.2243
vn 0.0805 -0.9776 0.1945
vn 0.3256 -0.5253 0.7862
vn 0.3764 0.1807 0.9087
vn 0.2243 0.8103 0.5414
vn 0.2243 -0.8103 0.5414
vn 0.3764 -0.1807 0.9087
vn 0.3256 0.5253 0.7862
vn 0.0805 0.9776 0.1945
vn -0.3764 0.1807 0.9087
vn -0.2243 0.8103 0.5414
vn -0.2243 -0.8103 0.5414
vn -0.3764 -0.1807 0.9087
vn -0.3256 0.5253 0.7862
vn -0.0805 0.9776 0.1945
vn -0.0805 -0.9776 0.1945
vn -0.3256 -0.5253 0.7862
vn -0.5414 -0.8103 0.2243
vn -0.9087 -0.1807 0.3764
vn -0.7862 0.5253 0.3256
vn -0.1945 0.9776 0.0806
vn -0.1945 -0.9776 0.0805
vn -0.7862 -0.5253 0.3256
vn -0.9087 0.1807 0.3764
vn -0.5414 0.8103 0.2243
vn -0.7862 0.5253 -0.3256
vn -0.1945 0.9776 -0.0806
vn -0.1945 -0.9776 -0.0805
vn -0.7862 -0.5253 -0.3256
vn -0.9087 0.1807 -0.3764
vn -0.5414 0.8103 -0.2243
vn -0.5414 -0.8103 -0.2243
vn -0.9087 -0.1807 -0.3764
vn -0.0805 -0.9776 -0.1945
vn -0.3256 -0.5253 -0.7862
vn -0.3764 0.1807 -0.9087
vn -0.2243 0.8103 -0.5414
vn -0.2243 -0.8103 -0.5414
vn -0.3764 -0.1807 -0.9087
vn -0.3256 0.5253 -0.7861
vn -0.0805 0.9776 -0.1945
usemtl Material.018
s off
f 1/1/1 12/2/1 2/3/1
f 2/3/2 12/2/2 3/4/2
f 3/4/3 12/2/3 4/5/3
f 4/5/4 12/2/4 5/6/4
f 5/6/5 12/2/5 6/7/5
f 6/7/6 12/2/6 7/8/6
f 7/8/7 12/2/7 8/9/7
f 8/9/8 12/2/8 9/10/8
f 9/10/9 12/2/9 10/11/9
f 10/11/10 12/2/10 11/12/10
f 11/12/11 12/2/11 13/13/11
f 13/13/12 12/2/12 14/14/12
f 14/14/13 12/2/13 15/15/13
f 15/15/14 12/2/14 16/16/14
f 16/16/15 12/2/15 17/17/15
f 17/17/16 12/2/16 1/1/16
f 1/18/17 2/19/17 3/20/17 4/21/17 5/22/17 6/23/17 7/24/17 8/25/17 9/26/17 10/27/17 11/28/17 13/29/17 14/30/17 15/31/17 16/32/17 17/33/17
f 18/34/18 29/35/18 19/36/18
f 19/36/19 29/35/19 20/37/19
f 20/37/20 29/35/20 21/38/20
f 21/38/21 29/35/21 22/39/21
f 22/39/22 29/35/22 23/40/22
f 23/40/23 29/35/23 24/41/23
f 24/41/24 29/35/24 25/42/24
f 25/42/25 29/35/25 26/43/25
f 26/43/26 29/35/26 27/44/26
f 27/44/27 29/35/27 28/45/27
f 28/45/28 29/35/28 30/46/28
f 30/46/29 29/35/29 31/47/29
f 31/47/30 29/35/30 32/48/30
f 32/48/31 29/35/31 33/49/31
f 33/49/32 29/35/32 34/50/32
f 34/50/33 29/35/33 18/34/33
f 18/51/17 19/52/17 20/53/17 21/54/17 22/55/17 23/56/17 24/57/17 25/58/17 26/59/17 27/60/17 28/61/17 30/62/17 31/63/17 32/64/17 33/65/17 34/66/17
usemtl Material.019
f 87/67/34 37/68/34 44/69/34
f 36/70/35 92/71/35 42/72/35 43/73/35
f 35/74/36 91/75/36 40/76/36 41/77/36
f 90/78/37 89/79/37 38/80/37 39/81/37
f 37/68/38 36/70/38 43/73/38 44/69/38
f 92/71/39 35/74/39 41/77/39 42/72/39
f 91/75/40 90/78/40 39/81/40 40/76/40
f 89/79/41 88/82/41 38/80/41
f 44/69/42 43/73/42 50/83/42 51/84/42
f 42/72/43 41/77/43 48/85/43 49/86/43
f 40/76/44 39/81/44 46/87/44 47/88/44
f 38/80/45 88/89/45 45/90/45
f 87/91/46 44/69/46 51/84/46
f 43/73/47 42/72/47 49/86/47 50/83/47
f 41/77/48 40/76/48 47/88/48 48/85/48
f 39/81/49 38/80/49 45/90/49 46/87/49
f 49/86/50 48/85/50 55/92/50 56/93/50
f 47/88/51 46/87/51 53/94/51 54/95/51
f 45/90/52 88/96/52 52/97/52
f 87/98/53 51/84/53 58/99/53
f 50/83/54 49/86/54 56/93/54 57/100/54
f 48/85/55 47/88/55 54/95/55 55/92/55
f 46/87/56 45/90/56 52/97/56 53/94/56
f 51/84/57 50/83/57 57/100/57 58/99/57
f 87/101/58 58/99/58 65/102/58
f 57/100/59 56/93/59 63/103/59 64/104/59
f 55/92/60 54/95/60 61/105/60 62/106/60
f 53/94/61 52/97/61 59/107/61 60/108/61
f 58/99/62 57/100/62 64/104/62 65/102/62
f 56/93/63 55/92/63 62/106/63 63/103/63
f 54/95/64 53/94/64 60/108/64 61/105/64
f 52/97/65 88/109/65 59/107/65
f 62/106/66 61/105/66 68/110/66 69/111/66
f 60/108/67 59/107/67 66/112/67 67/113/67
f 65/102/68 64/104/68 71/114/68 72/115/68
f 63/103/69 62/106/69 69/111/69 70/116/69
f 61/105/70 60/108/70 67/113/70 68/110/70
f 59/107/71 88/117/71 66/112/71
f 87/118/72 65/102/72 72/115/72
f 64/104/73 63/103/73 70/116/73 71/114/73
f 72/115/74 71/114/74 78/119/74 79/120/74
f 70/116/75 69/111/75 76/121/75 77/122/75
f 68/110/76 67/113/76 74/123/76 75/124/76
f 66/112/77 88/125/77 73/126/77
f 87/127/78 72/115/78 79/120/78
f 71/114/79 70/116/79 77/122/79 78/119/79
f 69/111/80 68/110/80 75/124/80 76/121/80
f 67/113/81 66/112/81 73/126/81 74/123/81
f 75/128/82 74/129/82 81/130/82 82/131/82
f 73/132/83 88/133/83 80/134/83
f 87/135/84 79/136/84 86/137/84
f 78/138/85 77/139/85 84/140/85 85/141/85
f 76/142/86 75/128/86 82/131/86 83/143/86
f 74/129/87 73/132/87 80/134/87 81/130/87
f 79/136/88 78/138/88 85/141/88 86/137/88
f 77/139/89 76/142/89 83/143/89 84/140/89
f 87/144/90 86/137/90 37/68/90
f 85/141/91 84/140/91 92/71/91 36/70/91
f 83/143/92 82/131/92 91/75/92 35/74/92
f 81/130/93 80/134/93 89/79/93 90/78/93
f 86/137/94 85/141/94 36/70/94 37/68/94
f 84/140/95 83/143/95 35/74/95 92/71/95
f 82/131/96 81/130/96 90/78/96 91/75/96
f 80/134/97 88/145/97 89/79/97
