# Blender v2.80 (sub 75) OBJ File: 'rocket.blend'
# www.blender.org
mtllib RocketNose_003.mtl
o RocketHead_003_Cone.002
v 0.000000 1.730121 -0.480043
v 0.183704 1.730121 -0.443502
v 0.339441 1.730121 -0.339441
v 0.443501 1.730121 -0.183704
v 0.480043 1.730121 -0.000000
v 0.443502 1.730121 0.183704
v 0.339441 1.730121 0.339441
v 0.183704 1.730121 0.443501
v 0.000000 1.730121 0.480043
v -0.183704 1.730121 0.443502
v -0.339441 1.730121 0.339441
v 0.000000 1.815215 -0.000001
v -0.443502 1.730120 0.183704
v -0.480043 1.730121 -0.000000
v -0.443501 1.730121 -0.183704
v -0.339441 1.730121 -0.339442
v -0.183704 1.730121 -0.443502
v 0.000000 1.486256 -1.275610
v 0.488155 1.486256 -1.178510
v 0.901993 1.486256 -0.901992
v 1.178510 1.486256 -0.488154
v 1.275610 1.486256 0.000001
v 1.178510 1.486256 0.488156
v 0.901993 1.486256 0.901993
v 0.488155 1.486256 1.178511
v 0.000000 1.486256 1.275611
v -0.488155 1.486256 1.178511
v -0.901992 1.486256 0.901994
v -1.178511 1.486256 0.488156
v -1.275610 1.486256 0.000000
v -1.178510 1.486256 -0.488155
v -0.901992 1.486256 -0.901993
v -0.488154 1.486256 -1.178510
v 0.000000 -1.369806 -1.806976
v 0.691500 -1.369806 -1.669428
v 1.277725 -1.369806 -1.277725
v 1.669428 -1.369806 -0.691500
v 1.806975 -1.369806 -0.000001
v 1.669428 -1.369806 0.691499
v 1.277725 -1.369806 1.277724
v 0.691500 -1.369806 1.669427
v 0.000000 -1.369806 1.806975
v -0.691499 -1.369806 1.669427
v -1.277724 -1.369806 1.277724
v -1.669427 -1.369806 0.691499
v -1.806975 -1.369806 -0.000001
v -1.669427 -1.369806 -0.691501
v -1.277724 -1.369806 -1.277726
v -0.691499 -1.369806 -1.669429
v -1.604018 1.017573 0.000000
v -1.481920 1.017573 0.613832
v 1.481920 1.017573 0.613832
v 1.604018 1.017573 0.000001
v -1.481919 1.017573 -0.613831
v 1.134212 1.017573 1.134213
v -1.134212 1.017573 -1.134212
v 0.613831 1.017573 1.481920
v -0.613830 1.017573 -1.481919
v 0.000000 1.017573 1.604019
v 0.613832 1.017573 -1.481919
v -0.000000 1.017573 -1.604018
v -0.613831 1.017573 1.481921
v 1.134212 1.017573 -1.134211
v -1.134212 1.017573 1.134213
v 1.481919 1.017573 -0.613831
v -1.702776 0.629036 0.000000
v 1.573160 0.629036 0.651625
v -1.573160 0.629036 -0.651624
v 1.204045 0.629036 1.204045
v -1.204044 0.629036 -1.204045
v 0.651624 0.629036 1.573161
v -0.651624 0.629036 -1.573160
v 0.000000 0.629036 1.702777
v 0.651625 0.629036 -1.573160
v -0.651624 0.629036 1.573161
v 1.204045 0.629036 -1.204044
v -1.204044 0.629036 1.204046
v 1.573160 0.629036 -0.651624
v -1.573161 0.629036 0.651625
v 1.702776 0.629036 0.000000
v -0.000000 0.629036 -1.702776
vt 0.250000 0.271331
vt 0.250000 0.250000
vt 0.258163 0.269707
vt 0.265083 0.265083
vt 0.269707 0.258163
vt 0.271331 0.250000
vt 0.269707 0.241837
vt 0.265083 0.234917
vt 0.258163 0.230293
vt 0.250000 0.228669
vt 0.241837 0.230293
vt 0.234917 0.234917
vt 0.230293 0.241837
vt 0.228669 0.250000
vt 0.230293 0.258163
vt 0.234917 0.265083
vt 0.241837 0.269707
vt 0.217649 0.282351
vt 0.207732 0.267508
vt 0.165609 0.215044
vt 0.158656 0.250000
vt 0.010000 0.250000
vt 0.028269 0.158156
vt 0.295751 0.250000
vt 0.292268 0.267508
vt 0.207732 0.232492
vt 0.217649 0.217649
vt 0.267508 0.292268
vt 0.250000 0.295751
vt 0.250000 0.204249
vt 0.267508 0.207732
vt 0.232492 0.292268
vt 0.292268 0.232492
vt 0.204249 0.250000
vt 0.232492 0.207732
vt 0.282351 0.282351
vt 0.282351 0.217649
vt 0.750000 0.490000
vt 0.841844 0.471731
vt 0.919706 0.419706
vt 0.971731 0.341844
vt 0.990000 0.250000
vt 0.971731 0.158156
vt 0.919706 0.080294
vt 0.841844 0.028269
vt 0.750000 0.010000
vt 0.658156 0.028269
vt 0.580294 0.080294
vt 0.528269 0.158156
vt 0.510000 0.250000
vt 0.528269 0.341844
vt 0.580294 0.419706
vt 0.658156 0.471731
vt 0.341344 0.250000
vt 0.334391 0.215044
vt 0.471731 0.158156
vt 0.490000 0.250000
vt 0.165609 0.284956
vt 0.028269 0.341844
vt 0.314590 0.185410
vt 0.419706 0.080294
vt 0.185410 0.314590
vt 0.080294 0.419706
vt 0.284956 0.165609
vt 0.341844 0.028269
vt 0.215044 0.334391
vt 0.158156 0.471731
vt 0.250000 0.158656
vt 0.250000 0.010000
vt 0.250000 0.341344
vt 0.284956 0.334391
vt 0.341844 0.471731
vt 0.250000 0.490000
vt 0.215044 0.165609
vt 0.158156 0.028269
vt 0.314590 0.314590
vt 0.419706 0.419706
vt 0.185410 0.185410
vt 0.080294 0.080294
vt 0.334391 0.284956
vt 0.471731 0.341844
vt 0.320679 0.250000
vt 0.315298 0.277048
vt 0.184702 0.222953
vt 0.200023 0.200023
vt 0.299977 0.299977
vt 0.222952 0.184702
vt 0.277048 0.315298
vt 0.250000 0.179321
vt 0.250000 0.320679
vt 0.222953 0.315298
vt 0.277048 0.184702
vt 0.200023 0.299977
vt 0.299977 0.200023
vt 0.184702 0.277048
vt 0.315298 0.222952
vt 0.179321 0.250000
vn 0.0347 0.9841 -0.1744
vn 0.0988 0.9841 -0.1479
vn 0.1479 0.9841 -0.0988
vn 0.1744 0.9841 -0.0347
vn 0.1744 0.9841 0.0347
vn 0.1479 0.9841 0.0988
vn 0.0988 0.9841 0.1479
vn 0.0347 0.9841 0.1744
vn -0.0347 0.9841 0.1744
vn -0.0988 0.9841 0.1479
vn -0.1479 0.9841 0.0988
vn -0.1744 0.9841 0.0347
vn -0.1744 0.9841 -0.0347
vn -0.1479 0.9841 -0.0988
vn -0.0988 0.9841 -0.1479
vn -0.0347 0.9841 -0.1744
vn -0.2480 0.9545 -0.1657
vn -0.9795 0.0511 0.1948
vn 0.2926 0.9545 -0.0582
vn -0.2480 0.9545 0.1657
vn 0.0582 0.9545 -0.2926
vn 0.0582 0.9545 0.2926
vn -0.1657 0.9545 -0.2480
vn -0.0582 0.9545 -0.2926
vn 0.2926 0.9545 0.0582
vn -0.2926 0.9545 0.0582
vn -0.0582 0.9545 0.2926
vn 0.1657 0.9545 -0.2480
vn 0.2480 0.9545 0.1657
vn -0.2926 0.9545 -0.0582
vn -0.1657 0.9545 0.2480
vn 0.2480 0.9545 -0.1657
vn 0.1657 0.9545 0.2480
vn 0.0000 -1.0000 -0.0000
vn 0.9795 0.0511 0.1948
vn -0.9795 0.0511 -0.1948
vn 0.8304 0.0511 0.5548
vn -0.8304 0.0511 -0.5548
vn 0.5548 0.0511 0.8304
vn -0.5548 0.0511 -0.8304
vn 0.1948 0.0511 0.9795
vn 0.1948 0.0511 -0.9795
vn -0.1948 0.0511 -0.9795
vn -0.1948 0.0511 0.9795
vn 0.5548 0.0511 -0.8304
vn -0.5548 0.0511 0.8304
vn 0.8304 0.0511 -0.5548
vn -0.8304 0.0511 0.5548
vn 0.9795 0.0511 -0.1948
vn 0.8083 0.5664 -0.1608
vn -0.6852 0.5664 0.4579
vn 0.6852 0.5664 -0.4579
vn -0.4579 0.5664 0.6852
vn 0.4579 0.5664 -0.6852
vn -0.1608 0.5664 0.8083
vn -0.1608 0.5664 -0.8083
vn 0.1608 0.5664 -0.8083
vn 0.1608 0.5664 0.8083
vn -0.4579 0.5664 -0.6852
vn 0.4579 0.5664 0.6852
vn -0.6852 0.5664 -0.4579
vn 0.6852 0.5664 0.4579
vn -0.8083 0.5664 -0.1608
vn 0.8083 0.5664 0.1608
vn -0.8083 0.5664 0.1608
vn 0.9517 0.2419 -0.1893
vn -0.8068 0.2419 0.5391
vn 0.8068 0.2419 -0.5391
vn -0.5391 0.2419 0.8068
vn 0.5391 0.2419 -0.8068
vn -0.1893 0.2419 0.9517
vn -0.1893 0.2419 -0.9517
vn 0.1893 0.2419 -0.9517
vn 0.1893 0.2419 0.9517
vn -0.5391 0.2419 -0.8068
vn 0.5391 0.2419 0.8068
vn -0.8068 0.2419 -0.5391
vn 0.8068 0.2419 0.5391
vn -0.9517 0.2419 -0.1893
vn 0.9517 0.2419 0.1893
vn -0.9517 0.2419 0.1893
usemtl Material.020
s off
f 1/1/1 12/2/1 2/3/1
f 2/3/2 12/2/2 3/4/2
f 3/4/3 12/2/3 4/5/3
f 4/5/4 12/2/4 5/6/4
f 5/6/5 12/2/5 6/7/5
f 6/7/6 12/2/6 7/8/6
f 7/8/7 12/2/7 8/9/7
f 8/9/8 12/2/8 9/10/8
f 9/10/9 12/2/9 10/11/9
f 10/11/10 12/2/10 11/12/10
f 11/12/11 12/2/11 13/13/11
f 13/13/12 12/2/12 14/14/12
f 14/14/13 12/2/13 15/15/13
f 15/15/14 12/2/14 16/16/14
f 16/16/15 12/2/15 17/17/15
f 17/17/16 12/2/16 1/1/16
f 15/15/17 16/16/17 32/18/17 31/19/17
f 79/20/18 66/21/18 46/22/18 45/23/18
f 4/5/19 5/6/19 22/24/19 21/25/19
f 11/12/20 13/13/20 29/26/20 28/27/20
f 1/1/21 2/3/21 19/28/21 18/29/21
f 8/9/22 9/10/22 26/30/22 25/31/22
f 16/16/23 17/17/23 33/32/23 32/18/23
f 17/17/24 1/1/24 18/29/24 33/32/24
f 5/6/25 6/7/25 23/33/25 22/24/25
f 13/13/26 14/14/26 30/34/26 29/26/26
f 9/10/27 10/11/27 27/35/27 26/30/27
f 2/3/28 3/4/28 20/36/28 19/28/28
f 6/7/29 7/8/29 24/37/29 23/33/29
f 14/14/30 15/15/30 31/19/30 30/34/30
f 10/11/31 11/12/31 28/27/31 27/35/31
f 3/4/32 4/5/32 21/25/32 20/36/32
f 7/8/33 8/9/33 25/31/33 24/37/33
f 34/38/34 35/39/34 36/40/34 37/41/34 38/42/34 39/43/34 40/44/34 41/45/34 42/46/34 43/47/34 44/48/34 45/49/34 46/50/34 47/51/34 48/52/34 49/53/34
f 80/54/35 67/55/35 39/56/35 38/57/35
f 66/21/36 68/58/36 47/59/36 46/22/36
f 67/55/37 69/60/37 40/61/37 39/56/37
f 68/58/38 70/62/38 48/63/38 47/59/38
f 69/60/39 71/64/39 41/65/39 40/61/39
f 70/62/40 72/66/40 49/67/40 48/63/40
f 71/64/41 73/68/41 42/69/41 41/65/41
f 81/70/42 74/71/42 35/72/42 34/73/42
f 72/66/43 81/70/43 34/73/43 49/67/43
f 73/68/44 75/74/44 43/75/44 42/69/44
f 74/71/45 76/76/45 36/77/45 35/72/45
f 75/74/46 77/78/46 44/79/46 43/75/46
f 76/76/47 78/80/47 37/81/47 36/77/47
f 77/78/48 79/20/48 45/23/48 44/79/48
f 78/80/49 80/54/49 38/57/49 37/81/49
f 21/25/50 22/24/50 53/82/50 65/83/50
f 28/27/51 29/26/51 51/84/51 64/85/51
f 20/36/52 21/25/52 65/83/52 63/86/52
f 27/35/53 28/27/53 64/85/53 62/87/53
f 19/28/54 20/36/54 63/86/54 60/88/54
f 26/30/55 27/35/55 62/87/55 59/89/55
f 33/32/56 18/29/56 61/90/56 58/91/56
f 18/29/57 19/28/57 60/88/57 61/90/57
f 25/31/58 26/30/58 59/89/58 57/92/58
f 32/18/59 33/32/59 58/91/59 56/93/59
f 24/37/60 25/31/60 57/92/60 55/94/60
f 31/19/61 32/18/61 56/93/61 54/95/61
f 23/33/62 24/37/62 55/94/62 52/96/62
f 30/34/63 31/19/63 54/95/63 50/97/63
f 22/24/64 23/33/64 52/96/64 53/82/64
f 29/26/65 30/34/65 50/97/65 51/84/65
f 65/83/66 53/82/66 80/54/66 78/80/66
f 64/85/67 51/84/67 79/20/67 77/78/67
f 63/86/68 65/83/68 78/80/68 76/76/68
f 62/87/69 64/85/69 77/78/69 75/74/69
f 60/88/70 63/86/70 76/76/70 74/71/70
f 59/89/71 62/87/71 75/74/71 73/68/71
f 58/91/72 61/90/72 81/70/72 72/66/72
f 61/90/73 60/88/73 74/71/73 81/70/73
f 57/92/74 59/89/74 73/68/74 71/64/74
f 56/93/75 58/91/75 72/66/75 70/62/75
f 55/94/76 57/92/76 71/64/76 69/60/76
f 54/95/77 56/93/77 70/62/77 68/58/77
f 52/96/78 55/94/78 69/60/78 67/55/78
f 50/97/79 54/95/79 68/58/79 66/21/79
f 53/82/80 52/96/80 67/55/80 80/54/80
f 51/84/81 50/97/81 66/21/81 79/20/81
