{
    "asset" : {
        "generator" : "Khronos glTF Blender I/O v0.9.36",
        "version" : "2.0"
    },
    "scene" : 0,
    "scenes" : [
        {
            "name" : "Scene",
            "nodes" : [
                0
            ]
        }
    ],
    "nodes" : [
        {
            "mesh" : 0,
            "name" : "Sphere"
        }
    ],
    "materials" : [
        {
            "doubleSided" : true,
            "name" : "Water",
            "pbrMetallicRoughness" : {
                "baseColorFactor" : [
                    0.01525214035063982,
                    0.009035378694534302,
                    0.8000000715255737,
                    1
                ],
                "metallicFactor" : 0,
                "roughnessFactor" : 0.5
            }
        },
        {
            "doubleSided" : true,
            "name" : "Green",
            "pbrMetallicRoughness" : {
                "baseColorFactor" : [
                    0.04200967028737068,
                    0.8000000715255737,
                    0.014541755430400372,
                    1
                ],
                "metallicFactor" : 0,
                "roughnessFactor" : 0.5
            }
        },
        {
            "doubleSided" : true,
            "name" : "White",
            "pbrMetallicRoughness" : {
                "baseColorFactor" : [
                    0.800000011920929,
                    0.800000011920929,
                    0.800000011920929,
                    1
                ],
                "metallicFactor" : 0,
                "roughnessFactor" : 0.5
            }
        }
    ],
    "meshes" : [
        {
            "name" : "Sphere",
            "primitives" : [
                {
                    "attributes" : {
                        "POSITION" : 0,
                        "NORMAL" : 1,
                        "TEXCOORD_0" : 2
                    },
                    "indices" : 3,
                    "material" : 0
                },
                {
                    "attributes" : {
                        "POSITION" : 4,
                        "NORMAL" : 5,
                        "TEXCOORD_0" : 6
                    },
                    "indices" : 7,
                    "material" : 0
                },
                {
                    "attributes" : {
                        "POSITION" : 8,
                        "NORMAL" : 9,
                        "TEXCOORD_0" : 10
                    },
                    "indices" : 11,
                    "material" : 0
                },
                {
                    "attributes" : {
                        "POSITION" : 12,
                        "NORMAL" : 13,
                        "TEXCOORD_0" : 14
                    },
                    "indices" : 15,
                    "material" : 1
                },
                {
                    "attributes" : {
                        "POSITION" : 16,
                        "NORMAL" : 17,
                        "TEXCOORD_0" : 18
                    },
                    "indices" : 19,
                    "material" : 2
                }
            ]
        }
    ],
    "accessors" : [
        {
            "bufferView" : 0,
            "componentType" : 5126,
            "count" : 65535,
            "max" : [
                0.9576432704925537,
                0.9779680967330933,
                0.9872314929962158
            ],
            "min" : [
                -0.9821767807006836,
                -0.9919530153274536,
                -0.9798033833503723
            ],
            "type" : "VEC3"
        },
        {
            "bufferView" : 1,
            "componentType" : 5126,
            "count" : 65535,
            "type" : "VEC3"
        },
        {
            "bufferView" : 2,
            "componentType" : 5126,
            "count" : 65535,
            "type" : "VEC2"
        },
        {
            "bufferView" : 3,
            "componentType" : 5123,
            "count" : 98301,
            "type" : "SCALAR"
        },
        {
            "bufferView" : 4,
            "componentType" : 5126,
            "count" : 27420,
            "max" : [
                2.086162567138672e-07,
                0.9779272079467773,
                0.1925993412733078
            ],
            "min" : [
                -0.9872310161590576,
                -0.9919530153274536,
                -0.9845525622367859
            ],
            "type" : "VEC3"
        },
        {
            "bufferView" : 5,
            "componentType" : 5126,
            "count" : 27420,
            "type" : "VEC3"
        },
        {
            "bufferView" : 6,
            "componentType" : 5126,
            "count" : 27420,
            "type" : "VEC2"
        },
        {
            "bufferView" : 7,
            "componentType" : 5123,
            "count" : 41130,
            "type" : "SCALAR"
        },
        {
            "bufferView" : 8,
            "componentType" : 5126,
            "count" : 3,
            "max" : [
                -0.9750813841819763,
                0.09738902747631073,
                0.12051963806152344
            ],
            "min" : [
                -0.9777386784553528,
                0.07309304922819138,
                0.09629897773265839
            ],
            "type" : "VEC3"
        },
        {
            "bufferView" : 9,
            "componentType" : 5126,
            "count" : 3,
            "type" : "VEC3"
        },
        {
            "bufferView" : 10,
            "componentType" : 5126,
            "count" : 3,
            "type" : "VEC2"
        },
        {
            "bufferView" : 11,
            "componentType" : 5123,
            "count" : 3,
            "type" : "SCALAR"
        },
        {
            "bufferView" : 12,
            "componentType" : 5126,
            "count" : 21244,
            "max" : [
                0.9872313737869263,
                0.9507186412811279,
                0.8706570863723755
            ],
            "min" : [
                -0.9435433745384216,
                -0.876269519329071,
                -0.9872310161590576
            ],
            "type" : "VEC3"
        },
        {
            "bufferView" : 13,
            "componentType" : 5126,
            "count" : 21244,
            "type" : "VEC3"
        },
        {
            "bufferView" : 14,
            "componentType" : 5126,
            "count" : 21244,
            "type" : "VEC2"
        },
        {
            "bufferView" : 15,
            "componentType" : 5123,
            "count" : 31866,
            "type" : "SCALAR"
        },
        {
            "bufferView" : 16,
            "componentType" : 5126,
            "count" : 12776,
            "max" : [
                0.3777971565723419,
                0.9975766539573669,
                0.25780004262924194
            ],
            "min" : [
                -0.2834652066230774,
                -0.9975766539573669,
                -0.25779926776885986
            ],
            "type" : "VEC3"
        },
        {
            "bufferView" : 17,
            "componentType" : 5126,
            "count" : 12776,
            "type" : "VEC3"
        },
        {
            "bufferView" : 18,
            "componentType" : 5126,
            "count" : 12776,
            "type" : "VEC2"
        },
        {
            "bufferView" : 19,
            "componentType" : 5123,
            "count" : 19164,
            "type" : "SCALAR"
        }
    ],
    "bufferViews" : [
        {
            "buffer" : 0,
            "byteLength" : 786420,
            "byteOffset" : 0
        },
        {
            "buffer" : 0,
            "byteLength" : 786420,
            "byteOffset" : 786420
        },
        {
            "buffer" : 0,
            "byteLength" : 524280,
            "byteOffset" : 1572840
        },
        {
            "buffer" : 0,
            "byteLength" : 196602,
            "byteOffset" : 2097120
        },
        {
            "buffer" : 0,
            "byteLength" : 329040,
            "byteOffset" : 2293724
        },
        {
            "buffer" : 0,
            "byteLength" : 329040,
            "byteOffset" : 2622764
        },
        {
            "buffer" : 0,
            "byteLength" : 219360,
            "byteOffset" : 2951804
        },
        {
            "buffer" : 0,
            "byteLength" : 82260,
            "byteOffset" : 3171164
        },
        {
            "buffer" : 0,
            "byteLength" : 36,
            "byteOffset" : 3253424
        },
        {
            "buffer" : 0,
            "byteLength" : 36,
            "byteOffset" : 3253460
        },
        {
            "buffer" : 0,
            "byteLength" : 24,
            "byteOffset" : 3253496
        },
        {
            "buffer" : 0,
            "byteLength" : 6,
            "byteOffset" : 3253520
        },
        {
            "buffer" : 0,
            "byteLength" : 254928,
            "byteOffset" : 3253528
        },
        {
            "buffer" : 0,
            "byteLength" : 254928,
            "byteOffset" : 3508456
        },
        {
            "buffer" : 0,
            "byteLength" : 169952,
            "byteOffset" : 3763384
        },
        {
            "buffer" : 0,
            "byteLength" : 63732,
            "byteOffset" : 3933336
        },
        {
            "buffer" : 0,
            "byteLength" : 153312,
            "byteOffset" : 3997068
        },
        {
            "buffer" : 0,
            "byteLength" : 153312,
            "byteOffset" : 4150380
        },
        {
            "buffer" : 0,
            "byteLength" : 102208,
            "byteOffset" : 4303692
        },
        {
            "buffer" : 0,
            "byteLength" : 38328,
            "byteOffset" : 4405900
        }
    ],
    "buffers" : [
        {
            "byteLength" : 4444228,
            "uri" : "untitled.bin"
        }
    ]
}
