# Blender v2.80 (sub 75) OBJ File: 'rocket.blend'
# www.blender.org
mtllib RocketThruster_002.mtl
o Rocket_002_Cylinder.004
v -0.112545 -2.385689 -0.206584
v -0.114220 0.242387 -0.205231
v -2.083602 -2.385689 0.931405
v -0.748689 0.242387 0.161080
v -2.083601 -2.385689 -1.344574
v -0.748689 0.242387 -0.571542
v -1.658118 0.444888 0.685876
v -0.113079 0.444888 -0.206153
v -0.088343 -2.385689 -2.475215
v -0.106429 0.242387 -0.935487
v 1.863610 -2.385689 -1.304761
v 0.521891 0.242387 -0.558726
v -0.126009 -2.385689 -0.199547
v -0.118554 0.242387 -0.202965
v -0.132049 -2.385689 -0.214699
v -0.120498 0.242387 -0.207843
v 1.845800 -2.385689 0.911444
v 0.516158 0.242387 0.154655
v -0.118393 -2.385689 2.061239
v -0.116102 0.242387 0.524766
v -1.658118 0.444888 -1.098182
v 1.421996 0.444888 0.670228
v -0.128367 0.444888 -0.212514
v 1.435957 0.444888 -1.066974
v -0.094108 0.444888 -1.984449
v -0.123633 0.444888 -0.200637
v -0.117663 0.444888 1.571511
v -0.506756 -2.385689 -0.206584
v -1.886496 -2.385689 0.590008
v -1.886496 -2.385689 -1.003177
v 0.103085 -2.385689 -2.130603
v 1.469453 -2.385689 -1.311285
v 0.076719 -2.385689 -0.537635
v 0.067101 -2.385689 0.125509
v 1.451596 -2.385689 0.913809
v 0.076661 -2.385689 1.718666
v -0.506756 -2.041357 -0.206584
v -1.886496 -2.041357 0.590008
v -1.886496 -2.041357 -1.003177
v 0.103085 -2.041357 -2.130603
v 1.469453 -2.041357 -1.311285
v 0.076719 -2.041357 -0.537635
v 0.067101 -2.041357 0.125509
v 1.451596 -2.041357 0.913809
v 0.076661 -2.041357 1.718666
v -1.658118 1.621130 -1.098182
v -1.658118 1.621130 0.685876
v 1.435957 1.621130 -1.066974
v -0.094108 1.621130 -1.984449
v -0.113079 1.621130 -0.206153
v -0.123633 1.621130 -0.200637
v 1.421996 1.621130 0.670228
v -0.128367 1.621130 -0.212514
v -0.117663 1.621130 1.571511
v -0.113079 1.622429 -0.206153
v -0.123633 1.622429 -0.200637
v -1.658118 1.622429 -1.098182
v -0.094108 1.622429 -1.984449
v -1.658118 1.622429 0.685876
v -0.117663 1.622429 1.571511
v -0.128367 1.622429 -0.212514
v 1.435957 1.622429 -1.066974
v 1.421996 1.622429 0.670228
vt 1.000000 0.500000
vt 1.000000 1.000000
vt 0.666667 1.000000
vt 0.666667 0.500000
vt 0.333333 1.000000
vt 0.333333 0.500000
vt -0.000000 1.000000
vt -0.000000 0.500000
vt -0.000000 0.500000
vt 0.333333 0.500000
vt 1.000000 0.500000
vt 1.000000 1.000000
vt 0.666667 1.000000
vt 0.666667 0.500000
vt 0.333333 1.000000
vt 0.333333 0.500000
vt 1.000000 0.500000
vt 1.000000 1.000000
vt 0.666667 1.000000
vt 0.666667 0.500000
vt -0.000000 1.000000
vt -0.000000 0.500000
vt -0.000000 0.500000
vt 0.333333 0.500000
vt 0.333333 1.000000
vt 0.333333 0.500000
vt -0.000000 1.000000
vt -0.000000 0.500000
vt -0.000000 0.500000
vt 0.333333 0.500000
vt -0.000000 0.500000
vt 0.333333 0.500000
vt 0.666667 0.500000
vt 1.000000 0.500000
vt 0.666667 0.500000
vt 0.333333 0.500000
vt 0.666667 0.500000
vt 1.000000 0.500000
vt 0.666667 0.500000
vt 1.000000 0.500000
vt 0.666667 0.500000
vt 1.000000 0.500000
vt 0.750000 0.490000
vt 0.957846 0.130000
vt 0.542154 0.130000
vt 0.750000 0.490000
vt 0.957846 0.130000
vt 0.542154 0.130000
vt 0.957846 0.130000
vt 0.542154 0.130000
vt 0.750000 0.490000
vt 0.333333 0.500000
vt -0.000000 0.500000
vt 0.666667 0.500000
vt 1.000000 0.500000
vt -0.000000 0.500000
vt 1.000000 0.500000
vt 0.000000 0.000000
vt 0.000000 0.000000
vt 0.000000 0.000000
vt 0.000000 0.000000
vt 0.000000 0.000000
vt 0.000000 0.000000
vt 0.000000 0.000000
vt 0.000000 0.000000
vt 0.000000 0.000000
vt 0.333333 1.000000
vt -0.000000 1.000000
vt 0.666667 1.000000
vt 0.666667 1.000000
vt 0.333333 1.000000
vt -0.000000 1.000000
vt 1.000000 1.000000
vt 1.000000 1.000000
vt 0.333333 1.000000
vt -0.000000 1.000000
vt 0.666667 1.000000
vt 1.000000 1.000000
vt 0.666667 1.000000
vt 0.333333 1.000000
vt 0.333333 1.000000
vt -0.000000 1.000000
vt 1.000000 1.000000
vt 0.666667 1.000000
vt 0.457846 0.130000
vt 0.250000 0.490000
vt 0.042154 0.130000
vt 0.457846 0.130000
vt 0.250000 0.490000
vt 0.042154 0.130000
vt 0.457846 0.130000
vt 0.250000 0.490000
vt 0.042154 0.130000
vt 1.000000 1.000000
vt 0.666667 1.000000
vt -0.000000 1.000000
vt 1.000000 1.000000
vt 0.333333 1.000000
vt -0.000000 1.000000
vt 0.000000 0.000000
vt 0.000000 0.000000
vt 0.000000 0.000000
vt 0.000000 0.000000
vt 0.000000 0.000000
vt 0.000000 0.000000
vt 0.000000 0.000000
vt 0.000000 0.000000
vt 0.000000 0.000000
vn 0.5000 -0.0001 0.8660
vn -0.8916 0.4529 -0.0000
vn 0.5000 0.0008 -0.8660
vn 0.0000 -1.0000 0.0000
vn 0.4589 0.4515 -0.7652
vn 0.4856 -0.0002 0.8742
vn 0.4948 0.0001 -0.8690
vn -0.9999 0.0028 -0.0165
vn 0.4511 0.4501 0.7706
vn -1.0000 0.0044 0.0060
vn 1.0000 0.0000 -0.0060
vn -0.4856 0.0000 -0.8742
vn -0.5000 0.0000 -0.8660
vn 1.0000 0.0000 0.0000
vn 0.9999 0.0000 0.0165
vn -0.4948 0.0000 0.8690
vn -0.5000 0.0000 0.8660
vn -0.5143 0.0000 0.8576
vn -0.5052 0.0000 -0.8630
vn 0.0000 1.0000 -0.0000
vn -0.9992 -0.0387 0.0060
vn 0.1106 -0.9757 0.1889
vn -0.2173 -0.9761 -0.0000
vn 0.5000 -0.0068 -0.8660
vn 0.5000 0.0011 0.8660
vn 0.4948 -0.0008 -0.8690
vn -0.9996 -0.0249 -0.0165
vn 0.4856 0.0021 0.8742
vn 0.1122 -0.9759 -0.1871
vn 0.4856 0.0000 0.8742
vn -1.0000 0.0000 0.0060
vn 0.5000 0.0000 0.8660
vn 0.4948 0.0000 -0.8690
vn -0.9999 0.0000 -0.0165
vn 0.5143 0.0000 -0.8576
vn -1.0000 0.0000 -0.0000
vn 0.5000 0.0000 -0.8660
vn 0.5052 0.0000 0.8630
vn -0.4984 0.0000 0.8669
vn -0.4909 0.0000 0.8712
vn 0.4930 0.0000 0.8700
vn -0.9289 0.0000 0.3703
vn 0.3842 0.0000 -0.9233
vn -0.9999 0.0000 -0.0107
vn 1.0000 0.0000 0.0080
vn 1.0000 0.0000 0.0026
vn 0.5049 0.0000 -0.8632
vn -0.4794 0.0000 -0.8776
vn -0.4632 0.0000 -0.8862
vn -0.5064 0.0000 -0.8623
usemtl Material.004
s off
f 1/1/1 2/2/1 4/3/1 3/4/1
f 3/4/2 4/3/2 6/5/2 5/6/2
f 5/6/3 6/5/3 2/7/3 1/8/3
f 5/6/4 1/8/4 28/9/4 30/10/4
f 9/11/5 10/12/5 12/13/5 11/14/5
f 11/14/6 12/13/6 14/15/6 13/16/6
f 15/17/7 16/18/7 18/19/7 17/20/7
f 13/16/8 14/15/8 10/21/8 9/22/8
f 13/16/4 9/22/4 31/23/4 33/24/4
f 17/20/9 18/19/9 20/25/9 19/26/9
f 19/26/10 20/25/10 16/27/10 15/28/10
f 19/26/4 15/28/4 34/29/4 36/30/4
f 36/30/11 34/29/11 43/31/11 45/32/11
f 3/4/4 5/6/4 30/10/4 29/33/4
f 1/1/4 3/4/4 29/33/4 28/34/4
f 32/35/12 33/24/12 42/36/12 41/37/12
f 11/14/4 13/16/4 33/24/4 32/35/4
f 9/11/4 11/14/4 32/35/4 31/38/4
f 28/34/13 29/33/13 38/39/13 37/40/13
f 17/20/4 19/26/4 36/30/4 35/41/4
f 15/17/4 17/20/4 35/41/4 34/42/4
f 37/43/4 38/44/4 39/45/4
f 40/46/4 41/47/4 42/48/4
f 44/49/4 45/50/4 43/51/4
f 29/33/14 30/10/14 39/52/14 38/39/14
f 33/24/15 31/23/15 40/53/15 42/36/15
f 34/42/16 35/41/16 44/54/16 43/55/16
f 30/10/17 28/9/17 37/56/17 39/52/17
f 31/38/18 32/35/18 41/37/18 40/57/18
f 35/41/19 36/30/19 45/32/19 44/54/19
f 21/58/20 26/59/20 8/60/20 25/61/20
f 7/62/4 23/63/4 8/60/4 27/64/4
f 22/65/4 26/59/4 23/63/4 24/66/4
usemtl Material.005
f 16/27/21 20/25/21 27/67/21 23/68/21
f 20/25/22 18/19/22 22/69/22 27/67/22
f 6/5/23 4/3/23 7/70/23 21/71/23
f 2/7/24 6/5/24 21/71/24 8/72/24
f 4/3/25 2/2/25 8/73/25 7/70/25
f 18/19/26 16/18/26 23/74/26 22/69/26
f 10/21/27 14/15/27 26/75/27 25/76/27
f 14/15/28 12/13/28 24/77/28 26/75/28
f 12/13/29 10/12/29 25/78/29 24/77/29
usemtl Material.006
f 26/75/30 24/77/30 48/79/30 51/80/30
f 23/68/31 27/67/31 54/81/31 53/82/31
f 7/70/32 8/73/32 50/83/32 47/84/32
f 48/85/20 49/86/20 51/87/20
f 47/88/20 50/89/20 46/90/20
f 52/91/20 53/92/20 54/93/20
f 22/69/33 23/74/33 53/94/33 52/95/33
f 25/76/34 26/75/34 51/80/34 49/96/34
f 24/77/35 25/78/35 49/97/35 48/79/35
f 21/71/36 7/70/36 47/84/36 46/98/36
f 8/72/37 21/71/37 46/98/37 50/99/37
f 27/67/38 22/69/38 52/95/38 54/81/38
f 57/100/4 58/101/4 55/102/4 56/103/4
f 59/104/20 60/105/20 55/102/20 61/106/20
f 63/107/20 62/108/20 61/106/20 56/103/20
f 7/62/39 27/64/39 60/105/39 59/104/39
f 26/59/40 22/65/40 63/107/40 56/103/40
f 21/58/41 25/61/41 58/101/41 57/100/41
f 23/63/42 26/59/42 56/103/42 61/106/42
f 8/60/43 23/63/43 61/106/43 55/102/43
f 25/61/44 8/60/44 55/102/44 58/101/44
f 22/65/45 24/66/45 62/108/45 63/107/45
f 27/64/46 8/60/46 55/102/46 60/105/46
f 26/59/47 21/58/47 57/100/47 56/103/47
f 24/66/48 23/63/48 61/106/48 62/108/48
f 8/60/49 26/59/49 56/103/49 55/102/49
f 23/63/50 7/62/50 59/104/50 61/106/50
